<svg width="200" height="200" viewBox="0 0 200 200" fill="none" xmlns="http://www.w3.org/2000/svg">
<path d="M113.043 26.0868C130.242 26.0868 147.054 31.1868 161.354 40.7417C175.654 50.2966 186.799 63.8774 193.381 79.7667C199.962 95.6559 201.684 113.14 198.329 130.008C194.974 146.876 186.692 162.37 174.531 174.531C162.37 186.692 146.876 194.974 130.008 198.329C113.14 201.685 95.6556 199.963 79.7663 193.381C63.8771 186.8 50.2963 175.654 40.7414 161.354C31.1864 147.054 26.0865 130.242 26.0865 113.044L113.043 113.044L113.043 26.0868Z" fill="#3658C7"/>
<path d="M113.044 65.2176C122.503 65.2176 131.75 68.0226 139.615 73.2778C147.48 78.533 153.61 86.0024 157.229 94.7415C160.849 103.481 161.796 113.097 159.951 122.374C158.106 131.652 153.551 140.173 146.862 146.862C140.173 153.551 131.652 158.106 122.374 159.951C113.097 161.796 103.481 160.849 94.7415 157.229C86.0024 153.61 78.533 147.48 73.2777 139.615C68.0225 131.75 65.2176 122.503 65.2176 113.044L113.044 113.044V65.2176Z" fill="white"/>
<rect y="24.5948" width="34.7827" height="112.173" transform="rotate(-45 0 24.5948)" fill="#14255C"/>
<rect x="73.9139" y="4.34753" width="34.7827" height="104.348" fill="#14255C"/>
<rect x="4.34824" y="108.696" width="34.7827" height="104.348" transform="rotate(-90 4.34824 108.696)" fill="#14255C"/>
</svg>
