<svg width="258" height="285" viewBox="0 0 258 285" fill="none" xmlns="http://www.w3.org/2000/svg">
<path d="M132.043 26.0868C149.242 26.0868 166.054 31.1868 180.354 40.7417C194.654 50.2966 205.799 63.8774 212.381 79.7667C218.962 95.6559 220.684 113.14 217.329 130.008C213.974 146.876 205.692 162.37 193.531 174.531C181.37 186.692 165.876 194.974 149.008 198.329C132.14 201.685 114.656 199.963 98.7663 193.381C82.8771 186.8 69.2963 175.654 59.7414 161.354C50.1864 147.054 45.0865 130.242 45.0865 113.044L132.043 113.044L132.043 26.0868Z" fill="#3658C7"/>
<path d="M132.044 65.2176C141.503 65.2176 150.75 68.0226 158.615 73.2778C166.48 78.533 172.61 86.0024 176.229 94.7415C179.849 103.481 180.796 113.097 178.951 122.374C177.106 131.652 172.551 140.173 165.862 146.862C159.173 153.551 150.652 158.106 141.374 159.951C132.097 161.796 122.481 160.849 113.741 157.229C105.002 153.61 97.533 147.48 92.2777 139.615C87.0225 131.75 84.2176 122.503 84.2176 113.044L132.044 113.044V65.2176Z" fill="white"/>
<rect x="19" y="24.5948" width="34.7827" height="112.173" transform="rotate(-45 19 24.5948)" fill="#14255C"/>
<rect x="92.9139" y="4.34753" width="34.7827" height="104.348" fill="#14255C"/>
<rect x="23.3482" y="108.696" width="34.7827" height="104.348" transform="rotate(-90 23.3482 108.696)" fill="#14255C"/>
<path d="M5.81 219H17.15V268H5.81V219ZM50.8988 229.78C55.5654 229.78 59.3221 231.18 62.1688 233.98C65.0621 236.78 66.5088 240.933 66.5088 246.44V268H55.5888V248.12C55.5888 245.133 54.9354 242.917 53.6288 241.47C52.3221 239.977 50.4321 239.23 47.9588 239.23C45.2054 239.23 43.0121 240.093 41.3788 241.82C39.7454 243.5 38.9288 246.02 38.9288 249.38V268H28.0088V230.34H38.4388V234.75C39.8854 233.163 41.6821 231.95 43.8288 231.11C45.9754 230.223 48.3321 229.78 50.8988 229.78ZM89.0772 268.56C85.9505 268.56 82.8939 268.187 79.9072 267.44C76.9205 266.647 74.5405 265.667 72.7672 264.5L76.4072 256.66C78.0872 257.733 80.1172 258.62 82.4972 259.32C84.8772 259.973 87.2105 260.3 89.4972 260.3C94.1172 260.3 96.4272 259.157 96.4272 256.87C96.4272 255.797 95.7972 255.027 94.5372 254.56C93.2772 254.093 91.3405 253.697 88.7272 253.37C85.6472 252.903 83.1039 252.367 81.0972 251.76C79.0905 251.153 77.3405 250.08 75.8472 248.54C74.4005 247 73.6772 244.807 73.6772 241.96C73.6772 239.58 74.3539 237.48 75.7072 235.66C77.1072 233.793 79.1139 232.347 81.7272 231.32C84.3872 230.293 87.5139 229.78 91.1072 229.78C93.7672 229.78 96.4039 230.083 99.0172 230.69C101.677 231.25 103.871 232.043 105.597 233.07L101.957 240.84C98.6439 238.973 95.0272 238.04 91.1072 238.04C88.7739 238.04 87.0239 238.367 85.8572 239.02C84.6905 239.673 84.1072 240.513 84.1072 241.54C84.1072 242.707 84.7372 243.523 85.9972 243.99C87.2572 244.457 89.2639 244.9 92.0172 245.32C95.0972 245.833 97.6172 246.393 99.5772 247C101.537 247.56 103.241 248.61 104.687 250.15C106.134 251.69 106.857 253.837 106.857 256.59C106.857 258.923 106.157 261 104.757 262.82C103.357 264.64 101.304 266.063 98.5972 267.09C95.9372 268.07 92.7639 268.56 89.0772 268.56ZM113.595 230.34H124.515V268H113.595V230.34ZM119.055 225.09C117.048 225.09 115.415 224.507 114.155 223.34C112.895 222.173 112.265 220.727 112.265 219C112.265 217.273 112.895 215.827 114.155 214.66C115.415 213.493 117.048 212.91 119.055 212.91C121.061 212.91 122.695 213.47 123.955 214.59C125.215 215.71 125.845 217.11 125.845 218.79C125.845 220.61 125.215 222.127 123.955 223.34C122.695 224.507 121.061 225.09 119.055 225.09ZM173.499 230.34V261.7C173.499 268.607 171.703 273.74 168.109 277.1C164.516 280.46 159.266 282.14 152.359 282.14C148.719 282.14 145.266 281.697 141.999 280.81C138.733 279.923 136.026 278.64 133.879 276.96L138.219 269.12C139.806 270.427 141.813 271.453 144.239 272.2C146.666 272.993 149.093 273.39 151.519 273.39C155.299 273.39 158.076 272.527 159.849 270.8C161.669 269.12 162.579 266.553 162.579 263.1V261.49C159.733 264.617 155.766 266.18 150.679 266.18C147.226 266.18 144.053 265.433 141.159 263.94C138.313 262.4 136.049 260.253 134.369 257.5C132.689 254.747 131.849 251.573 131.849 247.98C131.849 244.387 132.689 241.213 134.369 238.46C136.049 235.707 138.313 233.583 141.159 232.09C144.053 230.55 147.226 229.78 150.679 229.78C156.139 229.78 160.293 231.577 163.139 235.17V230.34H173.499ZM152.849 257.22C155.743 257.22 158.099 256.38 159.919 254.7C161.786 252.973 162.719 250.733 162.719 247.98C162.719 245.227 161.786 243.01 159.919 241.33C158.099 239.603 155.743 238.74 152.849 238.74C149.956 238.74 147.576 239.603 145.709 241.33C143.843 243.01 142.909 245.227 142.909 247.98C142.909 250.733 143.843 252.973 145.709 254.7C147.576 256.38 149.956 257.22 152.849 257.22ZM206.553 229.78C211.22 229.78 214.976 231.18 217.823 233.98C220.716 236.78 222.163 240.933 222.163 246.44V268H211.243V248.12C211.243 245.133 210.59 242.917 209.283 241.47C207.976 239.977 206.086 239.23 203.613 239.23C200.86 239.23 198.666 240.093 197.033 241.82C195.4 243.5 194.583 246.02 194.583 249.38V268H183.663V216.06H194.583V234.26C196.03 232.813 197.78 231.717 199.833 230.97C201.886 230.177 204.126 229.78 206.553 229.78ZM256.351 266.18C255.278 266.973 253.948 267.58 252.361 268C250.821 268.373 249.188 268.56 247.461 268.56C242.981 268.56 239.505 267.417 237.031 265.13C234.605 262.843 233.391 259.483 233.391 255.05V239.58H227.581V231.18H233.391V222.01H244.311V231.18H253.691V239.58H244.311V254.91C244.311 256.497 244.708 257.733 245.501 258.62C246.341 259.46 247.508 259.88 249.001 259.88C250.728 259.88 252.198 259.413 253.411 258.48L256.351 266.18Z" fill="#2A41CB"/>
</svg>
